<?xml version="1.0" encoding="utf-8"?>
<!-- Generator: Adobe Illustrator 26.2.1, SVG Export Plug-In . SVG Version: 6.00 Build 0)  -->
<svg version="1.1" id="Layer_1" xmlns="http://www.w3.org/2000/svg" xmlns:xlink="http://www.w3.org/1999/xlink" x="0px" y="0px"
	 viewBox="0 0 909.3 458.4" style="enable-background:new 0 0 909.3 458.4;" xml:space="preserve">
<g>
	<path d="M225.4,394.4c10,0,17.9,2.8,23.6,8.3c5.7,5.5,8.6,13.4,8.6,23.7s-2.9,18.2-8.6,23.7c-5.7,5.5-13.6,8.3-23.6,8.3h-20.7v-64
		H225.4z M226.2,451.1c7.3,0,13-2.2,17.1-6.5c4.1-4.4,6.2-10.4,6.2-18.2s-2.1-13.8-6.2-18.2c-4.1-4.4-9.8-6.5-17.1-6.5h-13.7v49.5
		H226.2z"/>
	<path d="M304.3,394.4v64h-7.8v-64H304.3z"/>
	<path d="M372.1,425.1v7.3h20.4v2.2c0,2.8-0.5,5.2-1.5,7.3c-1,2.1-2.3,3.8-4,5.1c-1.7,1.4-3.7,2.4-6,3.1c-2.3,0.7-4.8,1-7.4,1
		c-4.7,0-8.7-1-12-3.1c-3.3-2-5.7-5-7.4-8.8c-1.6-3.8-2.5-8.5-2.5-13.8c0-5.4,1-10,2.9-13.8c1.9-3.8,4.5-6.8,7.9-8.8
		c3.3-2,7.2-3.1,11.5-3.1c4.5,0,8.2,1,11.3,2.9c3.1,1.9,5.3,4.7,6.7,8.4l7.1-3.9c-2.5-5-5.7-8.7-9.7-11.1c-4-2.4-9.1-3.6-15.5-3.6
		c-6,0-11.2,1.3-15.8,4c-4.6,2.7-8.2,6.5-10.7,11.4c-2.6,4.9-3.8,10.8-3.8,17.6s1.2,12.6,3.6,17.6c2.4,4.9,5.9,8.7,10.3,11.4
		c4.4,2.7,9.7,4,15.8,4c5.4,0,9.9-1.1,13.5-3.3c2.7-1.6,4.8-3.7,6.4-6.3l0.3,9.6h6.1v-33.3H372.1z"/>
	<path d="M447.9,394.4v64h-7.8v-64H447.9z"/>
	<path d="M535.4,394.4v7.3h-22.3v56.7h-7.8v-56.7H483v-7.3H535.4z"/>
	<path d="M622.2,458.4H614l-6.8-17.8h-29l-6.8,17.8h-8.1l24.9-64h9.2L622.2,458.4z M581,433.4h23.4l-11.7-31.5L581,433.4z"/>
	<path d="M664.8,451.1h36.7v7.3h-44.4v-64h7.8V451.1z"/>
</g>
<g>
	<rect x="205.7" y="53.7" width="57.7" height="277.8"/>
	<polygon points="619.7,165.2 579.3,255.9 538.9,165.2 472.1,165.2 560.2,330.4 579.3,330.4 598.3,330.4 686.4,165.2 	"/>
	<path d="M781.7,330.4h-95.3V165.2h50.3c-19.8,17.5-32.2,43-32.2,71.5C704.5,283.2,737.7,321.9,781.7,330.4z"/>
	<circle cx="797.9" cy="237.3" r="37.4"/>
	<path d="M814.1,0h95.3v165.2h-50.3c19.8-17.5,32.2-43,32.2-71.5C891.3,47.2,858.1,8.5,814.1,0z"/>
	<circle cx="797.9" cy="93.1" r="37.4"/>
	<path d="M468.2,255.8v-14.4c0-44.3-35.9-80.2-80.2-80.2h-10.9c-24.1,0-45.9,9.8-61.7,25.5c-15.8,15.8-25.6,37.6-25.6,61.7
		c0,48.2,39.1,87.2,87.2,87.2h7c5.8,0,11.2-0.4,16.3-1.1c0.1,0,0.2,0,0.2,0c49-6.7,65-42,65-42l-5.2-2.6l-36.1-18
		c-9.9,13.6-24.9,19-38.7,19c-29.6,0-37.2-22.2-37.2-27.7s0-7.5,0-7.5H468.2z M376.8,198h8.9c15,0,27.2,12.2,27.2,27.2h-63.3
		C349.6,210.1,361.8,198,376.8,198z"/>
	<path d="M178.2,255.8v-14.4c0-44.3-35.9-80.2-80.2-80.2H87.2c-24.1,0-45.9,9.8-61.7,25.5C9.8,202.6,0,224.4,0,248.5
		c0,48.2,39.1,87.2,87.2,87.2h7c5.8,0,11.2-0.4,16.3-1.1c0.1,0,0.2,0,0.2,0c49-6.7,65-42,65-42l-5.2-2.6l-36.1-18
		c-9.9,13.6-24.9,19-38.7,19c-29.6,0-37.2-22.2-37.2-27.7s0-7.5,0-7.5H178.2z M86.9,198h8.9c15,0,27.2,12.2,27.2,27.2H59.7
		C59.7,210.1,71.9,198,86.9,198z"/>
</g>
</svg>
